<svg width="502" height="502" viewBox="0 0 502 502" fill="none" xmlns="http://www.w3.org/2000/svg">
<path d="M8.49792 316C37.1363 423.115 134.856 502 251 502C367.144 502 464.864 423.115 493.502 316C493.502 316 352.428 343.5 256 343.5C159.572 343.5 8.49792 316 8.49792 316Z" fill="black"/>
<path fill-rule="evenodd" clip-rule="evenodd" d="M502 251C502 273.479 499.045 295.268 493.502 316C493.502 316 352.428 343.5 256 343.5C159.572 343.5 8.49792 316 8.49792 316C2.95506 295.268 0 273.479 0 251C0 228.521 2.95506 206.732 8.49792 186C8.49792 186 154.225 159 251 159C347.775 159 493.502 186 493.502 186C499.045 206.732 502 228.521 502 251Z" fill="white"/>
<path d="M251 0C134.856 0 37.1363 78.8855 8.49792 186C8.49792 186 154.225 159 251 159C347.775 159 493.502 186 493.502 186C464.864 78.8855 367.144 0 251 0Z" fill="#007A3D"/>
<path d="M251.499 210L277.972 291.669L208.662 241.195H294.324L225.015 291.669L251.488 210H251.499Z" fill="#CE1126"/>
<path d="M134.837 210L161.31 291.669L92 241.195H177.662L108.353 291.669L134.826 210H134.837Z" fill="#CE1126"/>
<path d="M368.161 210L394.634 291.669L325.324 241.195H410.987L341.677 291.669L368.15 210H368.161Z" fill="#CE1126"/>
</svg>
